<?xml version="1.0" encoding="UTF-8" standalone="no"?>
<!DOCTYPE svg PUBLIC "-//W3C//DTD SVG 1.1//EN"
 "http://www.w3.org/Graphics/SVG/1.1/DTD/svg11.dtd">
<!-- Generated by graphviz version 2.40.1 (20161225.0304)
 -->
<!-- Title: dependencies Pages: 1 -->
<svg width="524pt" height="284pt"
 viewBox="0.00 0.00 524.00 284.00" xmlns="http://www.w3.org/2000/svg" xmlns:xlink="http://www.w3.org/1999/xlink">
<g id="graph0" class="graph" transform="scale(1 1) rotate(0) translate(4 280)">
<title>dependencies</title>
<polygon fill="#ffffff" stroke="transparent" points="-4,4 -4,-280 520,-280 520,4 -4,4"/>
<text text-anchor="start" x="237.0091" y="-42.4" font-family="sans-serif" font-weight="bold" font-size="14.00" fill="#000000">Legend</text>
<polygon fill="#ffffb3" stroke="transparent" points="24,-10 24,-30 44,-30 44,-10 24,-10"/>
<text text-anchor="start" x="47.629" y="-15.4" font-family="sans-serif" font-size="14.00" fill="#000000"> &#160;Declarations</text>
<polygon fill="#8dd3c7" stroke="transparent" points="137,-10 137,-30 157,-30 157,-10 137,-10"/>
<text text-anchor="start" x="160.7251" y="-15.4" font-family="sans-serif" font-size="14.00" fill="#000000"> &#160;Module</text>
<polygon fill="#80b1d3" stroke="transparent" points="223,-10 223,-30 243,-30 243,-10 223,-10"/>
<text text-anchor="start" x="246.7812" y="-15.4" font-family="sans-serif" font-size="14.00" fill="#000000"> &#160;Bootstrap</text>
<polygon fill="#fdb462" stroke="transparent" points="320,-10 320,-30 340,-30 340,-10 320,-10"/>
<text text-anchor="start" x="343.6732" y="-15.4" font-family="sans-serif" font-size="14.00" fill="#000000"> &#160;Providers</text>
<polygon fill="#fb8072" stroke="transparent" points="416,-10 416,-30 436,-30 436,-10 416,-10"/>
<text text-anchor="start" x="439.7258" y="-15.4" font-family="sans-serif" font-size="14.00" fill="#000000"> &#160;Exports</text>
<g id="clust1" class="cluster">
<title>cluster_UserModule</title>
<polygon fill="none" stroke="#000000" stroke-dasharray="1,5" points="8,-70 8,-268 508,-268 508,-70 8,-70"/>
</g>
<g id="clust2" class="cluster">
<title>cluster_UserModule_declarations</title>
<polygon fill="none" stroke="#000000" points="346,-78 346,-130 500,-130 500,-78 346,-78"/>
</g>
<g id="clust4" class="cluster">
<title>cluster_UserModule_imports</title>
<polygon fill="none" stroke="#000000" points="16,-78 16,-130 338,-130 338,-78 16,-78"/>
</g>
<g id="clust5" class="cluster">
<title>cluster_UserModule_exports</title>
<polygon fill="none" stroke="#000000" points="149,-208 149,-260 305,-260 305,-208 149,-208"/>
</g>
<!-- __DECLARATIONS -->
<g id="node1" class="node">
<title>__DECLARATIONS</title>
<polygon fill="#ffffb3" stroke="#000000" points="491.8075,-122 354.1925,-122 354.1925,-86 491.8075,-86 491.8075,-122"/>
<text text-anchor="middle" x="423" y="-99.8" font-family="Times,serif" font-size="14.00" fill="#000000">__DECLARATIONS</text>
</g>
<!-- UserModule -->
<g id="node2" class="node">
<title>UserModule</title>
<polygon fill="#8dd3c7" stroke="#000000" points="269.9762,-187 266.9762,-191 245.9762,-191 242.9762,-187 184.0238,-187 184.0238,-151 269.9762,-151 269.9762,-187"/>
<text text-anchor="middle" x="227" y="-164.8" font-family="Times,serif" font-size="14.00" fill="#000000">UserModule</text>
</g>
<!-- __DECLARATIONS&#45;&gt;UserModule -->
<g id="edge1" class="edge">
<title>__DECLARATIONS&#45;&gt;UserModule</title>
<path fill="none" stroke="#000000" d="M423,-122.1061C423,-141.3391 423,-169 423,-169 423,-169 280.013,-169 280.013,-169"/>
<polygon fill="#000000" stroke="#000000" points="280.0131,-165.5001 270.013,-169 280.013,-172.5001 280.0131,-165.5001"/>
</g>
<!-- __DECLARATIONS  -->
<g id="node6" class="node">
<title>__DECLARATIONS </title>
<polygon fill="#fb8072" stroke="#000000" points="297.3073,-252 156.6927,-252 156.6927,-216 297.3073,-216 297.3073,-252"/>
<text text-anchor="middle" x="227" y="-229.8" font-family="Times,serif" font-size="14.00" fill="#000000">__DECLARATIONS </text>
</g>
<!-- UserModule&#45;&gt;__DECLARATIONS  -->
<g id="edge5" class="edge">
<title>UserModule&#45;&gt;__DECLARATIONS </title>
<path fill="none" stroke="#000000" stroke-dasharray="5,2" d="M227,-187.1061C227,-187.1061 227,-205.991 227,-205.991"/>
<polygon fill="#000000" stroke="#000000" points="223.5001,-205.9909 227,-215.991 230.5001,-205.991 223.5001,-205.9909"/>
</g>
<!-- SharedModule -->
<g id="node3" class="node">
<title>SharedModule</title>
<polygon fill="#8dd3c7" stroke="#000000" points="330.4231,-122 327.4231,-126 306.4231,-126 303.4231,-122 231.5769,-122 231.5769,-86 330.4231,-86 330.4231,-122"/>
<text text-anchor="middle" x="281" y="-99.8" font-family="Times,serif" font-size="14.00" fill="#000000">SharedModule</text>
</g>
<!-- SharedModule&#45;&gt;UserModule -->
<g id="edge2" class="edge">
<title>SharedModule&#45;&gt;UserModule</title>
<path fill="none" stroke="#000000" d="M250.8885,-122.1061C250.8885,-122.1061 250.8885,-140.991 250.8885,-140.991"/>
<polygon fill="#000000" stroke="#000000" points="247.3886,-140.9909 250.8885,-150.991 254.3886,-140.991 247.3886,-140.9909"/>
</g>
<!-- UserRoutes -->
<g id="node4" class="node">
<title>UserRoutes</title>
<polygon fill="#8dd3c7" stroke="#000000" points="213.8134,-122 210.8134,-126 189.8134,-126 186.8134,-122 132.1866,-122 132.1866,-86 213.8134,-86 213.8134,-122"/>
<text text-anchor="middle" x="173" y="-99.8" font-family="Times,serif" font-size="14.00" fill="#000000">UserRoutes</text>
</g>
<!-- UserRoutes&#45;&gt;UserModule -->
<g id="edge3" class="edge">
<title>UserRoutes&#45;&gt;UserModule</title>
<path fill="none" stroke="#000000" d="M198.8342,-122.1061C198.8342,-122.1061 198.8342,-140.991 198.8342,-140.991"/>
<polygon fill="#000000" stroke="#000000" points="195.3342,-140.9909 198.8342,-150.991 202.3342,-140.991 195.3342,-140.9909"/>
</g>
<!-- __IMPORTS -->
<g id="node5" class="node">
<title>__IMPORTS</title>
<polygon fill="#8dd3c7" stroke="#000000" points="114.1668,-122 111.1668,-126 90.1668,-126 87.1668,-122 23.8332,-122 23.8332,-86 114.1668,-86 114.1668,-122"/>
<text text-anchor="middle" x="69" y="-99.8" font-family="Times,serif" font-size="14.00" fill="#000000">__IMPORTS</text>
</g>
<!-- __IMPORTS&#45;&gt;UserModule -->
<g id="edge4" class="edge">
<title>__IMPORTS&#45;&gt;UserModule</title>
<path fill="none" stroke="#000000" d="M69,-122.1061C69,-141.3391 69,-169 69,-169 69,-169 173.8258,-169 173.8258,-169"/>
<polygon fill="#000000" stroke="#000000" points="173.8258,-172.5001 183.8258,-169 173.8258,-165.5001 173.8258,-172.5001"/>
</g>
</g>
</svg>
