<?xml version="1.0" encoding="UTF-8" standalone="no"?>
<!DOCTYPE svg PUBLIC "-//W3C//DTD SVG 1.1//EN"
 "http://www.w3.org/Graphics/SVG/1.1/DTD/svg11.dtd">
<!-- Generated by graphviz version 2.40.1 (20161225.0304)
 -->
<!-- Title: dependencies Pages: 1 -->
<svg width="646pt" height="355pt"
 viewBox="0.00 0.00 646.00 355.00" xmlns="http://www.w3.org/2000/svg" xmlns:xlink="http://www.w3.org/1999/xlink">
<g id="graph0" class="graph" transform="scale(1 1) rotate(0) translate(4 351)">
<title>dependencies</title>
<polygon fill="#ffffff" stroke="transparent" points="-4,4 -4,-351 642,-351 642,4 -4,4"/>
<text text-anchor="start" x="298.0091" y="-42.4" font-family="sans-serif" font-weight="bold" font-size="14.00" fill="#000000">Legend</text>
<polygon fill="#ffffb3" stroke="transparent" points="85,-10 85,-30 105,-30 105,-10 85,-10"/>
<text text-anchor="start" x="108.629" y="-15.4" font-family="sans-serif" font-size="14.00" fill="#000000"> &#160;Declarations</text>
<polygon fill="#8dd3c7" stroke="transparent" points="198,-10 198,-30 218,-30 218,-10 198,-10"/>
<text text-anchor="start" x="221.7251" y="-15.4" font-family="sans-serif" font-size="14.00" fill="#000000"> &#160;Module</text>
<polygon fill="#80b1d3" stroke="transparent" points="284,-10 284,-30 304,-30 304,-10 284,-10"/>
<text text-anchor="start" x="307.7812" y="-15.4" font-family="sans-serif" font-size="14.00" fill="#000000"> &#160;Bootstrap</text>
<polygon fill="#fdb462" stroke="transparent" points="381,-10 381,-30 401,-30 401,-10 381,-10"/>
<text text-anchor="start" x="404.6732" y="-15.4" font-family="sans-serif" font-size="14.00" fill="#000000"> &#160;Providers</text>
<polygon fill="#fb8072" stroke="transparent" points="477,-10 477,-30 497,-30 497,-10 477,-10"/>
<text text-anchor="start" x="500.7258" y="-15.4" font-family="sans-serif" font-size="14.00" fill="#000000"> &#160;Exports</text>
<g id="clust1" class="cluster">
<title>cluster_AppModule</title>
<polygon fill="none" stroke="#000000" stroke-dasharray="1,5" points="8,-70 8,-339 450,-339 450,-70 8,-70"/>
</g>
<g id="clust2" class="cluster">
<title>cluster_AppModule_declarations</title>
<polygon fill="none" stroke="#000000" points="288,-78 288,-130 442,-130 442,-78 288,-78"/>
</g>
<g id="clust4" class="cluster">
<title>cluster_AppModule_imports</title>
<polygon fill="none" stroke="#000000" points="48,-78 48,-198 280,-198 280,-78 48,-78"/>
</g>
<g id="clust6" class="cluster">
<title>cluster_AppModule_bootstrap</title>
<polygon fill="none" stroke="#000000" points="44,-279 44,-331 168,-331 168,-279 44,-279"/>
</g>
<g id="clust21" class="cluster">
<title>cluster_SharedModule</title>
<polygon fill="none" stroke="#000000" stroke-dasharray="1,5" points="458,-271 458,-339 630,-339 630,-271 458,-271"/>
</g>
<g id="clust25" class="cluster">
<title>cluster_SharedModule_exports</title>
<polygon fill="none" stroke="#000000" points="466,-279 466,-331 622,-331 622,-279 466,-279"/>
</g>
<g id="clust28" class="cluster">
<title>cluster_UserModule</title>
<polygon fill="none" stroke="#000000" stroke-dasharray="1,5" points="458,-138 458,-263 572,-263 572,-138 458,-138"/>
</g>
<g id="clust31" class="cluster">
<title>cluster_UserModule_imports</title>
<polygon fill="none" stroke="#000000" points="466,-146 466,-198 564,-198 564,-146 466,-146"/>
</g>
<!-- __DECLARATIONS -->
<g id="node1" class="node">
<title>__DECLARATIONS</title>
<polygon fill="#ffffb3" stroke="#000000" points="433.8075,-122 296.1925,-122 296.1925,-86 433.8075,-86 433.8075,-122"/>
<text text-anchor="middle" x="365" y="-99.8" font-family="Times,serif" font-size="14.00" fill="#000000">__DECLARATIONS</text>
</g>
<!-- AppModule -->
<g id="node2" class="node">
<title>AppModule</title>
<polygon fill="#8dd3c7" stroke="#000000" points="147.6571,-255 144.6571,-259 123.6571,-259 120.6571,-255 64.3429,-255 64.3429,-219 147.6571,-219 147.6571,-255"/>
<text text-anchor="middle" x="106" y="-232.8" font-family="Times,serif" font-size="14.00" fill="#000000">AppModule</text>
</g>
<!-- __DECLARATIONS&#45;&gt;AppModule -->
<g id="edge1" class="edge">
<title>__DECLARATIONS&#45;&gt;AppModule</title>
<path fill="none" stroke="#000000" d="M387.8845,-122.2377C387.8845,-160.9861 387.8845,-248 387.8845,-248 387.8845,-248 157.8966,-248 157.8966,-248"/>
<polygon fill="#000000" stroke="#000000" points="157.8966,-244.5001 147.8966,-248 157.8965,-251.5001 157.8966,-244.5001"/>
</g>
<!-- LayoutModule -->
<g id="node4" class="node">
<title>LayoutModule</title>
<polygon fill="#8dd3c7" stroke="#000000" points="155.7078,-190 152.7078,-194 131.7078,-194 128.7078,-190 56.2922,-190 56.2922,-154 155.7078,-154 155.7078,-190"/>
<text text-anchor="middle" x="106" y="-167.8" font-family="Times,serif" font-size="14.00" fill="#000000">LayoutModule</text>
</g>
<!-- __DECLARATIONS&#45;&gt;LayoutModule -->
<g id="edge7" class="edge">
<title>__DECLARATIONS&#45;&gt;LayoutModule</title>
<path fill="none" stroke="#000000" d="M342.1155,-122.1944C342.1155,-130.2782 342.1155,-138 342.1155,-138 342.1155,-138 145.0502,-138 145.0502,-138 145.0502,-138 145.0502,-143.8056 145.0502,-143.8056"/>
<polygon fill="#000000" stroke="#000000" points="141.5502,-143.8055 145.0502,-153.8056 148.5502,-143.8056 141.5502,-143.8055"/>
</g>
<!-- SharedModule -->
<g id="node5" class="node">
<title>SharedModule</title>
<polygon fill="#8dd3c7" stroke="#000000" points="272.4231,-190 269.4231,-194 248.4231,-194 245.4231,-190 173.5769,-190 173.5769,-154 272.4231,-154 272.4231,-190"/>
<text text-anchor="middle" x="223" y="-167.8" font-family="Times,serif" font-size="14.00" fill="#000000">SharedModule</text>
</g>
<!-- __DECLARATIONS&#45;&gt;SharedModule -->
<g id="edge9" class="edge">
<title>__DECLARATIONS&#45;&gt;SharedModule</title>
<path fill="none" stroke="#000000" d="M296.0796,-104C278.1559,-104 263.7721,-104 263.7721,-104 263.7721,-104 263.7721,-143.7772 263.7721,-143.7772"/>
<polygon fill="#000000" stroke="#000000" points="260.2722,-143.7772 263.7721,-153.7772 267.2722,-143.7773 260.2722,-143.7772"/>
</g>
<!-- UserModule -->
<g id="node9" class="node">
<title>UserModule</title>
<polygon fill="#8dd3c7" stroke="#000000" points="551.9762,-255 548.9762,-259 527.9762,-259 524.9762,-255 466.0238,-255 466.0238,-219 551.9762,-219 551.9762,-255"/>
<text text-anchor="middle" x="509" y="-232.8" font-family="Times,serif" font-size="14.00" fill="#000000">UserModule</text>
</g>
<!-- __DECLARATIONS&#45;&gt;UserModule -->
<g id="edge12" class="edge">
<title>__DECLARATIONS&#45;&gt;UserModule</title>
<path fill="none" stroke="#000000" d="M433.695,-104C454.3154,-104 471.5664,-104 471.5664,-104 471.5664,-104 471.5664,-208.7858 471.5664,-208.7858"/>
<polygon fill="#000000" stroke="#000000" points="468.0665,-208.7858 471.5664,-218.7858 475.0665,-208.7858 468.0665,-208.7858"/>
</g>
<!-- AppComponent  -->
<g id="node7" class="node">
<title>AppComponent </title>
<polygon fill="#80b1d3" stroke="#000000" points="160.439,-323 51.561,-323 51.561,-287 160.439,-287 160.439,-323"/>
<text text-anchor="middle" x="106" y="-300.8" font-family="Times,serif" font-size="14.00" fill="#000000">AppComponent </text>
</g>
<!-- AppModule&#45;&gt;AppComponent  -->
<g id="edge6" class="edge">
<title>AppModule&#45;&gt;AppComponent </title>
<path fill="none" stroke="#000000" stroke-dasharray="1,5" d="M106,-255.2228C106,-255.2228 106,-276.7269 106,-276.7269"/>
<polygon fill="#000000" stroke="#000000" points="102.5001,-276.7269 106,-286.7269 109.5001,-276.727 102.5001,-276.7269"/>
</g>
<!-- AppRoutes -->
<g id="node3" class="node">
<title>AppRoutes</title>
<polygon fill="#8dd3c7" stroke="#000000" points="134.493,-122 131.493,-126 110.493,-126 107.493,-122 55.507,-122 55.507,-86 134.493,-86 134.493,-122"/>
<text text-anchor="middle" x="95" y="-99.8" font-family="Times,serif" font-size="14.00" fill="#000000">AppRoutes</text>
</g>
<!-- AppRoutes&#45;&gt;AppModule -->
<g id="edge2" class="edge">
<title>AppRoutes&#45;&gt;AppModule</title>
<path fill="none" stroke="#000000" d="M55.3754,-104C43.4812,-104 33.5305,-104 33.5305,-104 33.5305,-104 33.5305,-237 33.5305,-237 33.5305,-237 54.2641,-237 54.2641,-237"/>
<polygon fill="#000000" stroke="#000000" points="54.2641,-240.5001 64.2641,-237 54.2641,-233.5001 54.2641,-240.5001"/>
</g>
<!-- LayoutModule&#45;&gt;AppModule -->
<g id="edge3" class="edge">
<title>LayoutModule&#45;&gt;AppModule</title>
<path fill="none" stroke="#000000" d="M106,-190.1061C106,-190.1061 106,-208.991 106,-208.991"/>
<polygon fill="#000000" stroke="#000000" points="102.5001,-208.9909 106,-218.991 109.5001,-208.991 102.5001,-208.9909"/>
</g>
<!-- SharedModule&#45;&gt;AppModule -->
<g id="edge4" class="edge">
<title>SharedModule&#45;&gt;AppModule</title>
<path fill="none" stroke="#000000" d="M206.5963,-190.1289C206.5963,-210.5724 206.5963,-241 206.5963,-241 206.5963,-241 157.788,-241 157.788,-241"/>
<polygon fill="#000000" stroke="#000000" points="157.788,-237.5001 147.788,-241 157.7879,-244.5001 157.788,-237.5001"/>
</g>
<!-- __DECLARATIONS  -->
<g id="node8" class="node">
<title>__DECLARATIONS </title>
<polygon fill="#fb8072" stroke="#000000" points="614.3073,-323 473.6927,-323 473.6927,-287 614.3073,-287 614.3073,-323"/>
<text text-anchor="middle" x="544" y="-300.8" font-family="Times,serif" font-size="14.00" fill="#000000">__DECLARATIONS </text>
</g>
<!-- SharedModule&#45;&gt;__DECLARATIONS  -->
<g id="edge11" class="edge">
<title>SharedModule&#45;&gt;__DECLARATIONS </title>
<path fill="none" stroke="#000000" stroke-dasharray="5,2" d="M239.4037,-190.2142C239.4037,-226.6396 239.4037,-305 239.4037,-305 239.4037,-305 463.3539,-305 463.3539,-305"/>
<polygon fill="#000000" stroke="#000000" points="463.3539,-308.5001 473.3539,-305 463.3539,-301.5001 463.3539,-308.5001"/>
</g>
<!-- SharedModule&#45;&gt;UserModule -->
<g id="edge13" class="edge">
<title>SharedModule&#45;&gt;UserModule</title>
<path fill="none" stroke="#000000" d="M272.4434,-172C344.2179,-172 468.7891,-172 468.7891,-172 468.7891,-172 468.7891,-208.8939 468.7891,-208.8939"/>
<polygon fill="#000000" stroke="#000000" points="465.2892,-208.8938 468.7891,-218.8939 472.2892,-208.8939 465.2892,-208.8938"/>
</g>
<!-- __IMPORTS -->
<g id="node6" class="node">
<title>__IMPORTS</title>
<polygon fill="#8dd3c7" stroke="#000000" points="255.1668,-122 252.1668,-126 231.1668,-126 228.1668,-122 164.8332,-122 164.8332,-86 255.1668,-86 255.1668,-122"/>
<text text-anchor="middle" x="210" y="-99.8" font-family="Times,serif" font-size="14.00" fill="#000000">__IMPORTS</text>
</g>
<!-- __IMPORTS&#45;&gt;AppModule -->
<g id="edge5" class="edge">
<title>__IMPORTS&#45;&gt;AppModule</title>
<path fill="none" stroke="#000000" d="M169.2279,-122.0759C169.2279,-157.7964 169.2279,-234 169.2279,-234 169.2279,-234 157.8218,-234 157.8218,-234"/>
<polygon fill="#000000" stroke="#000000" points="157.8219,-230.5001 147.8218,-234 157.8218,-237.5001 157.8219,-230.5001"/>
</g>
<!-- __IMPORTS&#45;&gt;LayoutModule -->
<g id="edge8" class="edge">
<title>__IMPORTS&#45;&gt;LayoutModule</title>
<path fill="none" stroke="#000000" d="M166.9474,-122.2228C166.9474,-142.3652 166.9474,-172 166.9474,-172 166.9474,-172 165.7687,-172 165.7687,-172"/>
<polygon fill="#000000" stroke="#000000" points="165.7687,-168.5001 155.7687,-172 165.7687,-175.5001 165.7687,-168.5001"/>
</g>
<!-- __IMPORTS&#45;&gt;SharedModule -->
<g id="edge10" class="edge">
<title>__IMPORTS&#45;&gt;SharedModule</title>
<path fill="none" stroke="#000000" d="M214.561,-122.2228C214.561,-122.2228 214.561,-143.7269 214.561,-143.7269"/>
<polygon fill="#000000" stroke="#000000" points="211.0611,-143.7269 214.561,-153.7269 218.0611,-143.727 211.0611,-143.7269"/>
</g>
<!-- __IMPORTS&#45;&gt;UserModule -->
<g id="edge15" class="edge">
<title>__IMPORTS&#45;&gt;UserModule</title>
<path fill="none" stroke="#000000" d="M171.5084,-122.1491C171.5084,-156.3636 171.5084,-227 171.5084,-227 171.5084,-227 455.9137,-227 455.9137,-227"/>
<polygon fill="#000000" stroke="#000000" points="455.9137,-230.5001 465.9137,-227 455.9136,-223.5001 455.9137,-230.5001"/>
</g>
<!-- UserModule&#45;&gt;__DECLARATIONS  -->
<g id="edge16" class="edge">
<title>UserModule&#45;&gt;__DECLARATIONS </title>
<path fill="none" stroke="#000000" stroke-dasharray="5,2" d="M512.7923,-255.2228C512.7923,-255.2228 512.7923,-276.7269 512.7923,-276.7269"/>
<polygon fill="#000000" stroke="#000000" points="509.2923,-276.7269 512.7923,-286.7269 516.2923,-276.727 509.2923,-276.7269"/>
</g>
<!-- UserRoutes -->
<g id="node10" class="node">
<title>UserRoutes</title>
<polygon fill="#8dd3c7" stroke="#000000" points="555.8134,-190 552.8134,-194 531.8134,-194 528.8134,-190 474.1866,-190 474.1866,-154 555.8134,-154 555.8134,-190"/>
<text text-anchor="middle" x="515" y="-167.8" font-family="Times,serif" font-size="14.00" fill="#000000">UserRoutes</text>
</g>
<!-- UserRoutes&#45;&gt;UserModule -->
<g id="edge14" class="edge">
<title>UserRoutes&#45;&gt;UserModule</title>
<path fill="none" stroke="#000000" d="M513.1659,-190.1061C513.1659,-190.1061 513.1659,-208.991 513.1659,-208.991"/>
<polygon fill="#000000" stroke="#000000" points="509.6659,-208.9909 513.1659,-218.991 516.6659,-208.991 509.6659,-208.9909"/>
</g>
</g>
</svg>
