<?xml version="1.0" encoding="UTF-8" standalone="no"?>
<!DOCTYPE svg PUBLIC "-//W3C//DTD SVG 1.1//EN"
 "http://www.w3.org/Graphics/SVG/1.1/DTD/svg11.dtd">
<!-- Generated by graphviz version 2.40.1 (20161225.0304)
 -->
<!-- Title: dependencies Pages: 1 -->
<svg width="504pt" height="284pt"
 viewBox="0.00 0.00 504.00 284.00" xmlns="http://www.w3.org/2000/svg" xmlns:xlink="http://www.w3.org/1999/xlink">
<g id="graph0" class="graph" transform="scale(1 1) rotate(0) translate(4 280)">
<title>dependencies</title>
<polygon fill="#ffffff" stroke="transparent" points="-4,4 -4,-280 500,-280 500,4 -4,4"/>
<text text-anchor="start" x="227.0091" y="-42.4" font-family="sans-serif" font-weight="bold" font-size="14.00" fill="#000000">Legend</text>
<polygon fill="#ffffb3" stroke="transparent" points="14,-10 14,-30 34,-30 34,-10 14,-10"/>
<text text-anchor="start" x="37.629" y="-15.4" font-family="sans-serif" font-size="14.00" fill="#000000"> &#160;Declarations</text>
<polygon fill="#8dd3c7" stroke="transparent" points="127,-10 127,-30 147,-30 147,-10 127,-10"/>
<text text-anchor="start" x="150.7251" y="-15.4" font-family="sans-serif" font-size="14.00" fill="#000000"> &#160;Module</text>
<polygon fill="#80b1d3" stroke="transparent" points="213,-10 213,-30 233,-30 233,-10 213,-10"/>
<text text-anchor="start" x="236.7812" y="-15.4" font-family="sans-serif" font-size="14.00" fill="#000000"> &#160;Bootstrap</text>
<polygon fill="#fdb462" stroke="transparent" points="310,-10 310,-30 330,-30 330,-10 310,-10"/>
<text text-anchor="start" x="333.6732" y="-15.4" font-family="sans-serif" font-size="14.00" fill="#000000"> &#160;Providers</text>
<polygon fill="#fb8072" stroke="transparent" points="406,-10 406,-30 426,-30 426,-10 406,-10"/>
<text text-anchor="start" x="429.7258" y="-15.4" font-family="sans-serif" font-size="14.00" fill="#000000"> &#160;Exports</text>
<g id="clust1" class="cluster">
<title>cluster_SharedModule</title>
<polygon fill="none" stroke="#000000" stroke-dasharray="1,5" points="106,-70 106,-268 390,-268 390,-70 106,-70"/>
</g>
<g id="clust2" class="cluster">
<title>cluster_SharedModule_declarations</title>
<polygon fill="none" stroke="#000000" points="228,-78 228,-130 382,-130 382,-78 228,-78"/>
</g>
<g id="clust4" class="cluster">
<title>cluster_SharedModule_imports</title>
<polygon fill="none" stroke="#000000" points="114,-78 114,-130 220,-130 220,-78 114,-78"/>
</g>
<g id="clust5" class="cluster">
<title>cluster_SharedModule_exports</title>
<polygon fill="none" stroke="#000000" points="170,-208 170,-260 326,-260 326,-208 170,-208"/>
</g>
<!-- __DECLARATIONS -->
<g id="node1" class="node">
<title>__DECLARATIONS</title>
<polygon fill="#ffffb3" stroke="#000000" points="373.8075,-122 236.1925,-122 236.1925,-86 373.8075,-86 373.8075,-122"/>
<text text-anchor="middle" x="305" y="-99.8" font-family="Times,serif" font-size="14.00" fill="#000000">__DECLARATIONS</text>
</g>
<!-- SharedModule -->
<g id="node2" class="node">
<title>SharedModule</title>
<polygon fill="#8dd3c7" stroke="#000000" points="297.4231,-187 294.4231,-191 273.4231,-191 270.4231,-187 198.5769,-187 198.5769,-151 297.4231,-151 297.4231,-187"/>
<text text-anchor="middle" x="248" y="-164.8" font-family="Times,serif" font-size="14.00" fill="#000000">SharedModule</text>
</g>
<!-- __DECLARATIONS&#45;&gt;SharedModule -->
<g id="edge1" class="edge">
<title>__DECLARATIONS&#45;&gt;SharedModule</title>
<path fill="none" stroke="#000000" d="M266.7788,-122.1061C266.7788,-122.1061 266.7788,-140.991 266.7788,-140.991"/>
<polygon fill="#000000" stroke="#000000" points="263.2788,-140.9909 266.7788,-150.991 270.2788,-140.991 263.2788,-140.9909"/>
</g>
<!-- __DECLARATIONS  -->
<g id="node4" class="node">
<title>__DECLARATIONS </title>
<polygon fill="#fb8072" stroke="#000000" points="318.3073,-252 177.6927,-252 177.6927,-216 318.3073,-216 318.3073,-252"/>
<text text-anchor="middle" x="248" y="-229.8" font-family="Times,serif" font-size="14.00" fill="#000000">__DECLARATIONS </text>
</g>
<!-- SharedModule&#45;&gt;__DECLARATIONS  -->
<g id="edge3" class="edge">
<title>SharedModule&#45;&gt;__DECLARATIONS </title>
<path fill="none" stroke="#000000" stroke-dasharray="5,2" d="M248,-187.1061C248,-187.1061 248,-205.991 248,-205.991"/>
<polygon fill="#000000" stroke="#000000" points="244.5001,-205.9909 248,-215.991 251.5001,-205.991 244.5001,-205.9909"/>
</g>
<!-- __IMPORTS -->
<g id="node3" class="node">
<title>__IMPORTS</title>
<polygon fill="#8dd3c7" stroke="#000000" points="212.1668,-122 209.1668,-126 188.1668,-126 185.1668,-122 121.8332,-122 121.8332,-86 212.1668,-86 212.1668,-122"/>
<text text-anchor="middle" x="167" y="-99.8" font-family="Times,serif" font-size="14.00" fill="#000000">__IMPORTS</text>
</g>
<!-- __IMPORTS&#45;&gt;SharedModule -->
<g id="edge2" class="edge">
<title>__IMPORTS&#45;&gt;SharedModule</title>
<path fill="none" stroke="#000000" d="M205.561,-122.1061C205.561,-122.1061 205.561,-140.991 205.561,-140.991"/>
<polygon fill="#000000" stroke="#000000" points="202.0611,-140.9909 205.561,-150.991 209.0611,-140.991 202.0611,-140.9909"/>
</g>
</g>
</svg>
