<?xml version="1.0" encoding="UTF-8" standalone="no"?>
<!DOCTYPE svg PUBLIC "-//W3C//DTD SVG 1.1//EN"
 "http://www.w3.org/Graphics/SVG/1.1/DTD/svg11.dtd">
<!-- Generated by graphviz version 2.40.1 (20161225.0304)
 -->
<!-- Title: dependencies Pages: 1 -->
<svg width="639pt" height="284pt"
 viewBox="0.00 0.00 639.00 284.00" xmlns="http://www.w3.org/2000/svg" xmlns:xlink="http://www.w3.org/1999/xlink">
<g id="graph0" class="graph" transform="scale(1 1) rotate(0) translate(4 280)">
<title>dependencies</title>
<polygon fill="#ffffff" stroke="transparent" points="-4,4 -4,-280 635,-280 635,4 -4,4"/>
<text text-anchor="start" x="294.5091" y="-42.4" font-family="sans-serif" font-weight="bold" font-size="14.00" fill="#000000">Legend</text>
<polygon fill="#ffffb3" stroke="transparent" points="81.5,-10 81.5,-30 101.5,-30 101.5,-10 81.5,-10"/>
<text text-anchor="start" x="105.129" y="-15.4" font-family="sans-serif" font-size="14.00" fill="#000000"> &#160;Declarations</text>
<polygon fill="#8dd3c7" stroke="transparent" points="194.5,-10 194.5,-30 214.5,-30 214.5,-10 194.5,-10"/>
<text text-anchor="start" x="218.2251" y="-15.4" font-family="sans-serif" font-size="14.00" fill="#000000"> &#160;Module</text>
<polygon fill="#80b1d3" stroke="transparent" points="280.5,-10 280.5,-30 300.5,-30 300.5,-10 280.5,-10"/>
<text text-anchor="start" x="304.2812" y="-15.4" font-family="sans-serif" font-size="14.00" fill="#000000"> &#160;Bootstrap</text>
<polygon fill="#fdb462" stroke="transparent" points="377.5,-10 377.5,-30 397.5,-30 397.5,-10 377.5,-10"/>
<text text-anchor="start" x="401.1732" y="-15.4" font-family="sans-serif" font-size="14.00" fill="#000000"> &#160;Providers</text>
<polygon fill="#fb8072" stroke="transparent" points="473.5,-10 473.5,-30 493.5,-30 493.5,-10 473.5,-10"/>
<text text-anchor="start" x="497.2258" y="-15.4" font-family="sans-serif" font-size="14.00" fill="#000000"> &#160;Exports</text>
<g id="clust1" class="cluster">
<title>cluster_AppModule</title>
<polygon fill="none" stroke="#000000" stroke-dasharray="1,5" points="8,-70 8,-268 623,-268 623,-70 8,-70"/>
</g>
<g id="clust2" class="cluster">
<title>cluster_AppModule_declarations</title>
<polygon fill="none" stroke="#000000" points="461,-78 461,-130 615,-130 615,-78 461,-78"/>
</g>
<g id="clust4" class="cluster">
<title>cluster_AppModule_imports</title>
<polygon fill="none" stroke="#000000" points="16,-78 16,-130 453,-130 453,-78 16,-78"/>
</g>
<g id="clust6" class="cluster">
<title>cluster_AppModule_bootstrap</title>
<polygon fill="none" stroke="#000000" points="237,-208 237,-260 361,-260 361,-208 237,-208"/>
</g>
<!-- __DECLARATIONS -->
<g id="node1" class="node">
<title>__DECLARATIONS</title>
<polygon fill="#ffffb3" stroke="#000000" points="606.8075,-122 469.1925,-122 469.1925,-86 606.8075,-86 606.8075,-122"/>
<text text-anchor="middle" x="538" y="-99.8" font-family="Times,serif" font-size="14.00" fill="#000000">__DECLARATIONS</text>
</g>
<!-- AppModule -->
<g id="node2" class="node">
<title>AppModule</title>
<polygon fill="#8dd3c7" stroke="#000000" points="340.6571,-187 337.6571,-191 316.6571,-191 313.6571,-187 257.3429,-187 257.3429,-151 340.6571,-151 340.6571,-187"/>
<text text-anchor="middle" x="299" y="-164.8" font-family="Times,serif" font-size="14.00" fill="#000000">AppModule</text>
</g>
<!-- __DECLARATIONS&#45;&gt;AppModule -->
<g id="edge1" class="edge">
<title>__DECLARATIONS&#45;&gt;AppModule</title>
<path fill="none" stroke="#000000" d="M538,-122.2843C538,-143.3211 538,-175 538,-175 538,-175 350.9041,-175 350.9041,-175"/>
<polygon fill="#000000" stroke="#000000" points="350.9041,-171.5001 340.9041,-175 350.9041,-178.5001 350.9041,-171.5001"/>
</g>
<!-- AppComponent  -->
<g id="node7" class="node">
<title>AppComponent </title>
<polygon fill="#80b1d3" stroke="#000000" points="353.439,-252 244.561,-252 244.561,-216 353.439,-216 353.439,-252"/>
<text text-anchor="middle" x="299" y="-229.8" font-family="Times,serif" font-size="14.00" fill="#000000">AppComponent </text>
</g>
<!-- AppModule&#45;&gt;AppComponent  -->
<g id="edge6" class="edge">
<title>AppModule&#45;&gt;AppComponent </title>
<path fill="none" stroke="#000000" stroke-dasharray="1,5" d="M299,-187.1061C299,-187.1061 299,-205.991 299,-205.991"/>
<polygon fill="#000000" stroke="#000000" points="295.5001,-205.9909 299,-215.991 302.5001,-205.991 295.5001,-205.9909"/>
</g>
<!-- AppRoutes -->
<g id="node3" class="node">
<title>AppRoutes</title>
<polygon fill="#8dd3c7" stroke="#000000" points="445.493,-122 442.493,-126 421.493,-126 418.493,-122 366.507,-122 366.507,-86 445.493,-86 445.493,-122"/>
<text text-anchor="middle" x="406" y="-99.8" font-family="Times,serif" font-size="14.00" fill="#000000">AppRoutes</text>
</g>
<!-- AppRoutes&#45;&gt;AppModule -->
<g id="edge2" class="edge">
<title>AppRoutes&#45;&gt;AppModule</title>
<path fill="none" stroke="#000000" d="M406,-122.0225C406,-139.3734 406,-163 406,-163 406,-163 350.6754,-163 350.6754,-163"/>
<polygon fill="#000000" stroke="#000000" points="350.6754,-159.5001 340.6754,-163 350.6753,-166.5001 350.6754,-159.5001"/>
</g>
<!-- LayoutModule -->
<g id="node4" class="node">
<title>LayoutModule</title>
<polygon fill="#8dd3c7" stroke="#000000" points="348.7078,-122 345.7078,-126 324.7078,-126 321.7078,-122 249.2922,-122 249.2922,-86 348.7078,-86 348.7078,-122"/>
<text text-anchor="middle" x="299" y="-99.8" font-family="Times,serif" font-size="14.00" fill="#000000">LayoutModule</text>
</g>
<!-- LayoutModule&#45;&gt;AppModule -->
<g id="edge3" class="edge">
<title>LayoutModule&#45;&gt;AppModule</title>
<path fill="none" stroke="#000000" d="M299,-122.1061C299,-122.1061 299,-140.991 299,-140.991"/>
<polygon fill="#000000" stroke="#000000" points="295.5001,-140.9909 299,-150.991 302.5001,-140.991 295.5001,-140.9909"/>
</g>
<!-- SharedModule -->
<g id="node5" class="node">
<title>SharedModule</title>
<polygon fill="#8dd3c7" stroke="#000000" points="231.4231,-122 228.4231,-126 207.4231,-126 204.4231,-122 132.5769,-122 132.5769,-86 231.4231,-86 231.4231,-122"/>
<text text-anchor="middle" x="182" y="-99.8" font-family="Times,serif" font-size="14.00" fill="#000000">SharedModule</text>
</g>
<!-- SharedModule&#45;&gt;AppModule -->
<g id="edge4" class="edge">
<title>SharedModule&#45;&gt;AppModule</title>
<path fill="none" stroke="#000000" d="M182,-122.0225C182,-139.3734 182,-163 182,-163 182,-163 247.0908,-163 247.0908,-163"/>
<polygon fill="#000000" stroke="#000000" points="247.0908,-166.5001 257.0908,-163 247.0907,-159.5001 247.0908,-166.5001"/>
</g>
<!-- __IMPORTS -->
<g id="node6" class="node">
<title>__IMPORTS</title>
<polygon fill="#8dd3c7" stroke="#000000" points="114.1668,-122 111.1668,-126 90.1668,-126 87.1668,-122 23.8332,-122 23.8332,-86 114.1668,-86 114.1668,-122"/>
<text text-anchor="middle" x="69" y="-99.8" font-family="Times,serif" font-size="14.00" fill="#000000">__IMPORTS</text>
</g>
<!-- __IMPORTS&#45;&gt;AppModule -->
<g id="edge5" class="edge">
<title>__IMPORTS&#45;&gt;AppModule</title>
<path fill="none" stroke="#000000" d="M69,-122.2843C69,-143.3211 69,-175 69,-175 69,-175 247.0819,-175 247.0819,-175"/>
<polygon fill="#000000" stroke="#000000" points="247.0819,-178.5001 257.0819,-175 247.0819,-171.5001 247.0819,-178.5001"/>
</g>
</g>
</svg>
